<?xml version="1.0" encoding="utf-8"?>
<!-- Generator: Adobe Illustrator 27.7.0, SVG Export Plug-In . SVG Version: 6.00 Build 0)  -->
<svg version="1.1" id="Layer_1" xmlns="http://www.w3.org/2000/svg" xmlns:xlink="http://www.w3.org/1999/xlink" x="0px" y="0px"
	 viewBox="0 0 85.04 85.04" style="enable-background:new 0 0 85.04 85.04;" xml:space="preserve">
<style type="text/css">
	.st0{fill:#FFFFFF;}
	.st1{fill-rule:evenodd;clip-rule:evenodd;fill:#60A048;}
</style>
<rect y="0" class="st0" width="85.04" height="85.04"/>
<path class="st1" d="M45.5,36.02h5.24c0.21,0.36,0.34,0.75,0,1.3c-0.27,0.35-0.14,1.15,0.31,0.98c1.49-0.58,1.27-2.07,2.78-2.6h2.78
	c1.08,1.13,1.31,4.84,0,5.53c-1.23,0-2.47,0-3.7,0c-0.93-0.98-2-2.11-2.16,0.14c0,2.82,0,5.17,0,7.99
	c-0.04,0.22-0.14,0.33-0.31,0.33c-1.65,0-3.29,0-4.94,0c0-4.44,0-8.89,0-13.33V36.02"/>
<path class="st1" d="M51.67,49.02h4.63v9.1c0.17,2.5,2.16,2.19,2.16,0v-9.1h4.94v9.1c0,2.75-0.34,4.23-1.85,4.23h-7.4
	c-1.27-0.02-2.47-0.82-2.47-2.6V49.02"/>
<path class="st1" d="M32.54,7.4h0.93v5.85l-0.31,5.85l-0.31,11.05l-0.31,6.18v4.23h0.31l0.31-0.32l0.31-0.33l0.31-0.65l0.31-0.97
	l1.85-2.6l2.16-2.93l1.54-3.58l1.23-1.3l0.31-0.98l0.31-0.65l0.31-0.97l0.31-0.98l0.62-1.62l0.92-2.27l0.93-2.6l0.62-1.95l0.31-0.98
	l0.62-1.3l0.31-1.3V11.3l0.31-0.32l0.31,0.32l0.31,0.33l0.92,0.32l0.62,0.65v0.98l-0.31,0.97v1.3l-0.62,1.62l-0.62,1.95l-0.62,1.62
	l-0.62,1.63l-2.16,4.55l-1.23,2.27l-1.54,3.25l-1.23,1.95l-0.93,1.3l-0.31,0.98l-0.31,0.32v0.33h0.31l0.31-0.33l0.31-0.65l0.93-0.98
	l0.62-1.3l0.92-1.95l0.93-1.3l0.92-1.62l0.62-1.3l0.92-1.62l0.93-1.63l0.93-1.62l0.62-1.3l0.62-1.3l0.31-0.65l0.31-0.65l0.31-0.65
	l0.31-0.65h0.62v0.33l0.31,0.65v0.65l-0.31,0.97l-0.62,1.62l-0.61,1.3l-0.93,1.95l-0.93,2.28l-0.93,1.95l-1.54,2.6l-1.23,1.95
	l-0.93,1.63l-0.62,0.65l-0.92,1.3l-0.93,1.3l-0.62,0.65l-0.31,0.33l-0.62,0.32h-0.92l-0.31,0.65l-0.62,0.65l-0.62,0.33l-0.31,0.32
	v0.33h0.62c8.61,3.02,12.12,13.01,16.35,20.81c3.42,5.76,4.54,8.7,11.1,10.08c2.6,0.34,5.11,0.32,7.71,0.32c1.24,0,0.72-2.28,0-2.28
	c-2.06,0-4.12,0-6.17,0c-0.94,0-1.54-0.67-1.54-1.62c0-2.49,0-4.41,0-6.9c0.08-0.93,1-1.23,1.85-1.23h9.26
	c0.49,0.08,0.82,0.28,0.92,0.65v2.28c-0.06,0.61-0.37,0.94-0.92,0.98h-5.25c-0.83,0-0.77,2.28,0,2.28c1.85,0,3.7,0,5.55,0
	c0.71-0.02,1.22,0.3,1.54,0.97c0.72,2.27,0.79,8.02-2.47,8.15c-7.92,0-15.84-0.02-23.75-0.02c-4.43,0-7.12-2.64-8.95-6.5
	c-2.83-5.99-5.04-12.31-7.4-18.54l-0.93-2.6l-0.31-0.65v0.32l-0.31,1.3v25.69l-0.31,0.98l-0.31,0.33h-1.54l-0.31-0.33v-0.33
	l-0.31-0.33h-0.31l-0.31,0.33h-0.62l-0.31,0.33l-0.62,0.33h-1.54l-0.31-0.65v-0.97l0.31-0.98l0.31-1.63l0.31-1.62l0.31-0.65v-1.62
	l0.31-0.33h0.31l0.31,0.33v1.3l-0.31,1.3v0.97l-0.31,0.97v0.98l0.31,0.32l0.31-0.32l0.31-0.65v-3.58l0.31-1.63v-2.28l0.31-3.25
	l0.31-3.9v-2.6l0.31-2.6v-4.23l0.31-0.65l0.62-0.33l0.31-0.65L31,48.37v-0.33h-0.62l-1.23,1.3l-0.31,0.33v0.65l-0.31,1.63l-0.31,2.6
	l-0.62,2.93l-0.92,4.23l-0.93,3.9l-0.31,1.63l-0.62,1.3l-0.31,1.3l-0.62,1.95l-0.31,1.3l-0.62,1.62l-0.31,0.98l-0.93,0.65
	l-0.31,0.32h-0.31l-0.31-0.32v-0.32l0.31-0.65l0.31-0.65v-0.97l0.31-0.65v-0.65l0.31-0.65l-0.31-0.33l-0.31-0.33v0.33h-0.31
	l-0.31,0.65l-0.61,0.32l-0.31,0.33v0.65l0.31,0.33h0.31l0.31,0.65v0.33l-0.31,0.33l-0.31,0.32l-0.31,0.33l-0.31,0.33v1.3l-0.31,0.65
	l-0.31,0.33h-0.31l-0.62-0.65h-1.23l-0.62-0.33v-0.98l0.31-0.65l0.62-0.98l0.93-0.97l0.92-0.65v-0.65l0.31-0.65l0.62-1.3l0.62-0.32
	l0.62-0.98l0.31-0.32v-0.65l0.31-1.3l0.62-1.63l0.62-1.95l0.62-2.6l0.92-2.6l0.31-1.3l0.31-0.97v-0.97h-0.31l-0.31,0.65v0.33
	l-0.31,0.65l-0.62,0.97l-0.62,1.3l-0.62,1.95L21.44,63l-0.92,1.63l-0.62,1.62l-0.31,1.3l-0.31,0.97l-0.62,0.98l-0.62,1.3l-0.93,1.3
	l-0.93,1.3l-0.31,0.65l-0.31,0.33l-0.31,0.98l-0.62,0.65l-0.93,0.97l-0.93,0.33h-0.92l-0.93-0.33l-0.62-0.33h-0.31l-0.31-0.32h0.31
	l0.62-0.65l1.23-1.3l0.61-0.98l0.93-1.3v-0.33l0.31-0.33l0.31,0.33h0.62l0.31-0.33l0.31-0.33l0.31-0.65v-0.98l-0.31-0.65v-0.33h0.31
	l0.62-0.97l1.54-2.28l1.54-2.93l1.23-1.95l0.62-1.95l0.31-0.65v-0.33l-0.31-0.32l-0.31,0.32l-0.31,0.98l-0.62,1.62l-0.93,0.98
	L18.04,63l-1.23,1.95l-0.62,1.3l-0.31,0.98l-0.62,0.65l-0.62,0.98l-0.93,0.65l-0.93,0.98l-0.61,0.97l-0.62,0.98l-1.23,1.3
	l-0.62,0.32H8.79l-0.31-0.97l-0.31-0.65v-0.32l0.31-0.33v-0.33l-0.62-0.65v-0.65l0.62-0.32l0.62-0.33h0.31l0.93-0.98l0.93-0.97
	l1.23-1.3l1.24-1.62l1.23-1.3l0.93-1.3l0.93-1.62l0.62-1.63l0.31-0.32l0.31-0.65v-0.65l-0.31-0.33h-0.62l-0.31,0.33h-1.54v-1.63
	l-0.31-0.65h-0.62l-0.31,0.32v0.32h-0.31l-0.31,0.33l-0.31-0.33l-0.62-0.32l-0.92-0.65l-0.62-0.65v-0.97l0.31-1.3l0.31-0.98
	l0.92-1.3l0.62-0.65l0.31-0.65l0.31-0.33l0.31,0.33h0.31l-0.31,0.33v0.65l-0.31,0.65v3.25l0.31,0.32l0.62,0.32l0.62,0.33h4.01
	l1.54-0.65l1.23-0.98l0.93-0.32l0.31-0.32l0.31-0.33v-0.32h-0.62l-0.62,0.32h-0.92l-0.31,0.33l-0.62,0.32l-0.31,0.32v0.33
	l-0.62,0.33l-0.62,0.32H16.5l-0.93-0.32l-0.92-0.33l-0.31-0.65l-0.31-0.97L14.34,50l0.31-0.65l0.31-0.97v-0.65l0.31-0.65l0.62-0.65
	l0.93-0.97l1.85-0.65h1.54v-0.33l-0.62-0.33l-0.31-0.65l-0.62-0.98l-0.93-1.62l-1.23-1.3l-0.93-0.98l-0.62-0.65v-0.32l0.31-0.33
	v-0.32h0.62l0.62-0.32l0.93,0.65l0.62,0.33l0.62,0.65l0.92,1.3l1.23,1.95l0.31,1.3l0.31,0.32h0.31l0.31-0.32l-0.31-0.33l-0.62-0.97
	v-0.98l-0.31-0.65l-0.61-0.65l-1.54-2.27l-0.93-1.3v-0.65l-0.31-0.32v-0.65l0.31-0.33l0.62-0.32h0.61l0.62,0.32l0.31,0.65l0.31,0.33
	l0.61,0.97l0.93,1.95l0.31,0.32h0.31v-0.32l-0.31-0.65v-1.62l-0.31-0.65l-0.31-0.98l-0.31-0.65l-0.31-0.97l-1.23-1.3l-0.31-0.33
	v-1.95l0.31-0.32h0.62l0.61,0.65l0.31,0.32l0.93,1.3l0.31,0.65l0.31,0.33v0.32h0.31l0.31-0.32l-0.31-0.33l-0.31-0.32l-0.31-0.98
	v-0.98l-0.62-0.98l-0.31-0.65l-0.31-0.33l0.31-0.65h0.92l0.31,0.33l0.31,0.65v0.65l0.62,1.62l0.62,2.28v1.3l-0.31,0.65l-0.31,0.65
	v0.65l0.31,0.65v1.62l0.31,1.63l0.31,2.27v5.2l-0.62,0.65L23.6,47.4l-0.31,0.33l0.31,0.33h0.31l0.31-0.33l0.31-0.33l0.62-0.32
	l0.31-0.33l0.62-0.32h0.31l0.31-0.33v-1.3l-0.31-0.33v-8.78l-0.31-3.58v-4.88l-0.31-2.6v-2.93l-0.31-1.95v-1.63l-0.31-0.32v-0.98
	h0.62l0.62-0.32h0.61l0.31-0.33v-0.65l0.31-0.33v-0.33h0.31l0.31,0.33l0.31,0.33l-0.31,0.65l0.31,1.63v1.62l-0.31,0.65v13.33
	l-0.31,2.27v1.95l-0.31,2.93l0.31,2.93v0.97l-0.31,0.65l0.31,0.33v-0.33h0.31l0.31-0.33l0.31-0.65l0.62-0.32l0.31-0.65v-2.28
	l0.31-0.98v-2.28v0.32v-2.6l-0.31-0.65v-1.63l-0.31-0.32l0.31-0.33v-0.97h0.62l0.31,0.65v0.32L31,32.77l0.31-0.33L31,32.12
	l-0.31-0.33L31,31.14v-1.62l-0.31-0.65l-0.31-0.65v-2.93l-0.31-0.33V8.7l0.31-0.32h0.31v0.65L31,9.35v0.33L31.31,10l0.31-0.32v-1.3
	h0.62l0.31-0.33V7.4"/>
</svg>
